<?xml version="1.0" encoding="UTF-8" standalone="no"?>
<!-- Created with Inkscape (http://www.inkscape.org/) -->

<svg
   xmlns:dc="http://purl.org/dc/elements/1.1/"
   xmlns:cc="http://creativecommons.org/ns#"
   xmlns:rdf="http://www.w3.org/1999/02/22-rdf-syntax-ns#"
   xmlns:svg="http://www.w3.org/2000/svg"
   xmlns="http://www.w3.org/2000/svg"
   xmlns:xlink="http://www.w3.org/1999/xlink"
   xmlns:sodipodi="http://sodipodi.sourceforge.net/DTD/sodipodi-0.dtd"
   xmlns:inkscape="http://www.inkscape.org/namespaces/inkscape"
   width="86"
   height="86"
   id="svg2"
   version="1.1"
   inkscape:version="0.92.4 (5da689c313, 2019-01-14)"
   sodipodi:docname="fosdem.svg"
   inkscape:export-filename="C:\Users\Stephan\Desktop\double-shape.png"
   inkscape:export-xdpi="90"
   inkscape:export-ydpi="90">
  <defs
     id="defs4">
    <linearGradient
       id="linearGradient3789-6">
      <stop
         style="stop-color:#969696;stop-opacity:1"
         offset="0"
         id="stop3791-0" />
      <stop
         style="stop-color:#e6e6e6;stop-opacity:1"
         offset="1"
         id="stop3793-4" />
    </linearGradient>
    <filter
       x="-0.063521519"
       y="-0.45755345"
       width="1.127043"
       height="1.9151069"
       color-interpolation-filters="sRGB"
       id="filter3973">
      <feGaussianBlur
         stdDeviation="1.0784638"
         id="feGaussianBlur3975" />
    </filter>
    <linearGradient
       id="linearGradient7462-8">
      <stop
         id="stop7464-6"
         style="stop-color:#e2c8de;stop-opacity:1"
         offset="0" />
      <stop
         id="stop7466-89"
         style="stop-color:#b491ae;stop-opacity:1"
         offset="1" />
    </linearGradient>
    <linearGradient
       inkscape:collect="always"
       xlink:href="#linearGradient3789-6"
       id="linearGradient864"
       x1="74.15596"
       y1="162.38818"
       x2="-91.923882"
       y2="-3.3380961"
       gradientUnits="userSpaceOnUse"
       gradientTransform="translate(59.396969,-25.188816)" />
    <filter
       style="color-interpolation-filters:sRGB;"
       inkscape:label="Blur"
       id="filter934">
      <feGaussianBlur
         stdDeviation="2 2"
         result="fbSourceGraphic"
         id="feGaussianBlur932" />
      <feColorMatrix
         result="fbSourceGraphicAlpha"
         in="fbSourceGraphic"
         values="0 0 0 -1 0 0 0 0 -1 0 0 0 0 -1 0 0 0 0 1 0"
         id="feColorMatrix936" />
      <feGaussianBlur
         id="feGaussianBlur938"
         stdDeviation="2 2"
         result="blur"
         in="fbSourceGraphic" />
    </filter>
  </defs>
  <sodipodi:namedview
     id="base"
     pagecolor="#000000"
     bordercolor="#666666"
     borderopacity="1.0"
     inkscape:pageopacity="0"
     inkscape:pageshadow="2"
     inkscape:zoom="9.3871273"
     inkscape:cx="-22.944277"
     inkscape:cy="4.3768338"
     inkscape:document-units="px"
     inkscape:current-layer="layer2"
     showgrid="true"
     inkscape:window-width="3840"
     inkscape:window-height="2065"
     inkscape:window-x="0"
     inkscape:window-y="0"
     inkscape:window-maximized="1"
     inkscape:snap-bbox="true"
     inkscape:snap-global="true"
     inkscape:snap-grids="false"
     inkscape:snap-others="false"
     inkscape:pagecheckerboard="true">
    <inkscape:grid
       type="xygrid"
       id="grid2985"
       empspacing="5"
       visible="false"
       enabled="true"
       snapvisiblegridlinesonly="true" />
  </sodipodi:namedview>
  <metadata
     id="metadata7">
    <rdf:RDF>
      <cc:Work
         rdf:about="">
        <dc:format>image/svg+xml</dc:format>
        <dc:type
           rdf:resource="http://purl.org/dc/dcmitype/StillImage" />
        <dc:title />
      </cc:Work>
    </rdf:RDF>
  </metadata>
  <g
     inkscape:groupmode="layer"
     id="layer2"
     inkscape:label="Ebene"
     style="display:inline"
     transform="translate(0,-4)">
    <rect
       style="opacity:1;fill:url(#linearGradient864);fill-opacity:1;fill-rule:nonzero;stroke:none;stroke-width:69.33000183;stroke-linecap:round;stroke-linejoin:bevel;stroke-miterlimit:1.41420996;stroke-dasharray:none;stroke-dashoffset:0;stroke-opacity:1;paint-order:markers fill stroke"
       id="rect856"
       width="86"
       height="86"
       x="0"
       y="4" />
  </g>
  <g
     inkscape:groupmode="layer"
     id="layer1"
     inkscape:label="Object">
    <g
       style="fill:#ab1b93;stroke-width:4.76489305"
       id="g4595"
       transform="matrix(0.20986829,0,0,0.20986829,-10.736155,-10.736879)">
      <path
         inkscape:connector-curvature="0"
         d="m 243.9,74.74 -15.28,1.82 -8.137,35.79 c -10.28,2.553 -20.26,6.202 -29.77,10.88 l -29.51,-21.27 -12.67,8.706 9.076,34.82 c -8.016,7.162 -15.23,15.18 -21.51,23.89 l -35.46,-4.906 -7.176,13.6 23.82,26.34 c -3.754,10.17 -6.382,20.72 -7.835,31.46 l -33.38,12.11 -0.03415,15.37 33.33,12.25 c 1.438,10.73 4.047,21.27 7.78,31.43 l -24.03,26.3 7.113,13.64 35.46,-4.732 c 6.268,8.726 13.46,16.74 21.47,23.92 l -9.272,34.85 12.63,8.766 29.56,-21.09 c 9.503,4.706 19.49,8.38 29.77,10.96 l 7.976,35.83 15.26,1.887 16.55,-33.18 v -0.0677 c 10.45,-0.2596 20.84,-1.623 31,-4.069 l 0.0977,0.4337 23.88,28.36 14.39,-5.42 -0.761,-37.06 -0.3443,-0.6377 c 9.096,-5.056 17.64,-11.06 25.47,-17.91 l 0.6887,0.8036 34.32,14.01 10.22,-11.49 -17.91,-32.47 -1.11,-0.744 c 5.748,-8.634 10.57,-17.85 14.39,-27.49 l 1.33,0.5313 36.9,-3.55 3.711,-14.92 -30.94,-20.43 -1.654,-0.1783 c 0.6229,-5.26 0.9635,-10.55 1.02,-15.84 -0.005,-5.058 -0.269,-10.11 -0.7907,-15.14 l 1.492,-0.1573 31.03,-20.29 -3.648,-14.93 -36.88,-3.716 -1.425,0.5612 c -3.748,-9.667 -8.501,-18.91 -14.17,-27.59 l 1.105,-0.7355 18.04,-32.39 -10.17,-11.53 -34.39,13.86 -0.7226,0.8375 c -7.813,-6.867 -16.33,-12.89 -25.4,-17.98 l 0.3868,-0.71 0.9268,-37.06 -14.32,-5.508 -24.01,28.25 -0.0851,0.3699 c -10.16,-2.506 -20.55,-3.929 -31,-4.247 z m 8.316,83.44 c 46.56,-1.835 87.96,29.38 99.01,74.64 12.83,52.56 -19.38,105.6 -71.92,118.4 -52.5,12.8 -105.5,-19.4 -118.4,-71.9 -12.83,-52.56 19.38,-105.6 71.92,-118.4 6.35,-1.55 12.84,-2.459 19.36,-2.716 z"
         id="path4589"
         style="stroke-width:4.76489305" />
      <circle
         cx="224"
         r="26.389999"
         cy="256"
         id="circle4591"
         style="stroke-width:4.76489305" />
      <circle
         cx="288.20001"
         r="26.389999"
         cy="256"
         id="circle4593"
         style="stroke-width:4.76489305" />
    </g>
  </g>
</svg>
