<?xml version="1.0" encoding="UTF-8" standalone="no"?>
<svg
   xmlns:osb="http://www.openswatchbook.org/uri/2009/osb"
   xmlns:dc="http://purl.org/dc/elements/1.1/"
   xmlns:cc="http://creativecommons.org/ns#"
   xmlns:rdf="http://www.w3.org/1999/02/22-rdf-syntax-ns#"
   xmlns:svg="http://www.w3.org/2000/svg"
   xmlns="http://www.w3.org/2000/svg"
   xmlns:xlink="http://www.w3.org/1999/xlink"
   xmlns:sodipodi="http://sodipodi.sourceforge.net/DTD/sodipodi-0.dtd"
   xmlns:inkscape="http://www.inkscape.org/namespaces/inkscape"
   width="5461"
   height="5462"
   version="1.1"
   xml:space="preserve"
   style="clip-rule:evenodd;fill-rule:evenodd;stroke-linecap:round;stroke-linejoin:round;stroke-miterlimit:1.41420996"
   id="svg883"
   sodipodi:docname="icecast.svg"
   inkscape:version="0.92.3 (unknown)"><metadata
   id="metadata889"><rdf:RDF><cc:Work
       rdf:about=""><dc:format>image/svg+xml</dc:format><dc:type
         rdf:resource="http://purl.org/dc/dcmitype/StillImage" /><dc:title></dc:title></cc:Work></rdf:RDF></metadata><defs
   id="defs887"><radialGradient
   gradientUnits="userSpaceOnUse"
   gradientTransform="matrix(0.015671,0,0,0.015671,0.33919035,0.29128379)"
   r="42.6105"
   cy="43.466"
   cx="40.4091"
   id="SVGID_1_"><stop
     id="stop3679"
     style="stop-color:#868688"
     offset="0" /><stop
     id="stop3681"
     style="stop-color:#DADADA"
     offset="1" /></radialGradient>
        
    
            
            
        
                
                
                
                
                
                
                
                
                
                
                
                
                
                
                
                
                
                
                
                
                
                
            <filter
   style="color-interpolation-filters:sRGB"
   inkscape:label="Drop Shadow"
   id="filter977"><feFlood
     flood-opacity="0.498039"
     flood-color="rgb(0,0,0)"
     result="flood"
     id="feFlood967" /><feComposite
     in="flood"
     in2="SourceGraphic"
     operator="in"
     result="composite1"
     id="feComposite969" /><feGaussianBlur
     in="composite1"
     stdDeviation="3"
     result="blur"
     id="feGaussianBlur971" /><feOffset
     dx="6"
     dy="6"
     result="offset"
     id="feOffset973" /><feComposite
     in="SourceGraphic"
     in2="offset"
     operator="over"
     result="composite2"
     id="feComposite975" /></filter><filter
   style="color-interpolation-filters:sRGB"
   inkscape:label="Drop Shadow"
   id="filter886"><feFlood
     flood-opacity="0.498039"
     flood-color="rgb(0,0,0)"
     result="flood"
     id="feFlood876" /><feComposite
     in="flood"
     in2="SourceGraphic"
     operator="in"
     result="composite1"
     id="feComposite878" /><feGaussianBlur
     in="composite1"
     stdDeviation="20.7"
     result="blur"
     id="feGaussianBlur880" /><feOffset
     dx="6"
     dy="6"
     result="offset"
     id="feOffset882" /><feComposite
     in="SourceGraphic"
     in2="offset"
     operator="over"
     result="composite2"
     id="feComposite884" /></filter><radialGradient
   gradientUnits="userSpaceOnUse"
   gradientTransform="matrix(1.0021,0,0,1.0021,2.506,-0.5573)"
   r="42.6105"
   cy="43.466"
   cx="40.4091"
   id="radialGradient4422-3"><stop
     id="stop4418-6"
     style="stop-color:#4e6cb6;fill-opacity:1;fill:url(#linearGradient2009);stop-opacity:1"
     offset="0" /><stop
     id="stop4420-7"
     style="stop-color:#c2d2fc;fill-opacity:1;fill:url(#linearGradient2009);stop-opacity:1"
     offset="1" /></radialGradient><radialGradient
   gradientUnits="userSpaceOnUse"
   gradientTransform="matrix(1.0021,0,0,1.0021,2.506,-0.5573)"
   r="42.6105"
   cy="43.466"
   cx="40.4091"
   id="radialGradient876"><stop
     id="stop872"
     style="stop-color:#4e6cb6;fill-opacity:1;fill:url(#linearGradient2009);stop-opacity:1"
     offset="0" /><stop
     id="stop874"
     style="stop-color:#c2d2fc;fill-opacity:1;fill:url(#linearGradient2009);stop-opacity:1"
     offset="1" /></radialGradient><radialGradient
   id="radialGradient4422"
   cx="40.4091"
   cy="43.466"
   r="42.6105"
   gradientTransform="matrix(1.0021,0,0,1.0021,2.506,-0.5573)"
   gradientUnits="userSpaceOnUse"><stop
     offset="0"
     style="stop-color:#4e6cb6;fill-opacity:1;fill:url(#linearGradient2009);stop-opacity:1"
     id="stop4418" /><stop
     offset="1"
     style="stop-color:#c2d2fc;fill-opacity:1;fill:url(#linearGradient2009);stop-opacity:1"
     id="stop4420" /></radialGradient><linearGradient
   inkscape:collect="always"
   xlink:href="#radialGradient882"
   id="linearGradient937"
   gradientUnits="userSpaceOnUse"
   gradientTransform="translate(6713.5235,-412.33237)"
   x1="538.58429"
   y1="7640.3901"
   x2="-8329.2783"
   y2="-1202.4222" /><inkscape:path-effect
   back_thickness="0.25"
   front_thickness="1"
   stroke_width_bottom="1"
   stroke_width_top="1"
   fat_output="true"
   bottom_smth_variation="0;1"
   top_smth_variation="0;1"
   scale_tb="1"
   scale_tf="1"
   scale_bb="1"
   scale_bf="1"
   top_tgt_variation="0;1"
   bottom_tgt_variation="0;1"
   top_edge_variation="3.774728;1"
   bottom_edge_variation="3.774728;1"
   bender="140.31778,615.06389 , 5,0"
   do_bend="true"
   growth="0"
   dist_rdm="75;1"
   direction="140.31778,610.06389 , 13.307985,0"
   is_visible="true"
   id="path-effect3889"
   effect="rough_hatches" /><inkscape:path-effect
   back_thickness="0.25"
   front_thickness="1"
   stroke_width_bottom="1"
   stroke_width_top="1"
   fat_output="true"
   bottom_smth_variation="0;1"
   top_smth_variation="0;1"
   scale_tb="1"
   scale_tf="1"
   scale_bb="1"
   scale_bf="1"
   top_tgt_variation="0;1"
   bottom_tgt_variation="0;1"
   top_edge_variation="0.726441;136364563"
   bottom_edge_variation="0.726441;38682326"
   bender="117.99884,632.17348 , 5,0"
   do_bend="true"
   growth="0"
   dist_rdm="1;1860558585"
   direction="117.99884,627.17348 , 3.082595,0"
   is_visible="true"
   id="path-effect3887"
   effect="rough_hatches" /><linearGradient
   osb:paint="solid"
   id="linearGradient3916"><stop
     id="stop3918"
     offset="0"
     style="stop-color:#0000ad;stop-opacity:1;" /></linearGradient><linearGradient
   osb:paint="solid"
   id="linearGradient3889"><stop
     id="stop3891"
     offset="0"
     style="stop-color:#0000ff;stop-opacity:1;" /></linearGradient><inkscape:perspective
   id="perspective2985"
   inkscape:persp3d-origin="372.04724 : 350.78739 : 1"
   inkscape:vp_z="744.09448 : 526.18109 : 1"
   inkscape:vp_y="0 : 1000 : 0"
   inkscape:vp_x="0 : 526.18109 : 1"
   sodipodi:type="inkscape:persp3d" /><inkscape:path-effect
   back_thickness="0.25"
   front_thickness="1"
   stroke_width_bottom="1"
   stroke_width_top="1"
   fat_output="true"
   bottom_smth_variation="0;1"
   top_smth_variation="0;1"
   scale_tb="1"
   scale_tf="1"
   scale_bb="1"
   scale_bf="1"
   top_tgt_variation="0;1"
   bottom_tgt_variation="0;1"
   top_edge_variation="3.774728;1"
   bottom_edge_variation="3.774728;1"
   bender="140.31778,615.06389 , 5,0"
   do_bend="true"
   growth="0"
   dist_rdm="75;1"
   direction="140.31778,610.06389 , 13.307985,0"
   is_visible="true"
   id="path-effect3889-3"
   effect="rough_hatches" /><inkscape:path-effect
   back_thickness="0.25"
   front_thickness="1"
   stroke_width_bottom="1"
   stroke_width_top="1"
   fat_output="true"
   bottom_smth_variation="0;1"
   top_smth_variation="0;1"
   scale_tb="1"
   scale_tf="1"
   scale_bb="1"
   scale_bf="1"
   top_tgt_variation="0;1"
   bottom_tgt_variation="0;1"
   top_edge_variation="0.726441;136364563"
   bottom_edge_variation="0.726441;38682326"
   bender="117.99884,632.17348 , 5,0"
   do_bend="true"
   growth="0"
   dist_rdm="1;1860558585"
   direction="117.99884,627.17348 , 3.082595,0"
   is_visible="true"
   id="path-effect3887-7"
   effect="rough_hatches" /><inkscape:perspective
   id="perspective2985-2"
   inkscape:persp3d-origin="372.04724 : 350.78739 : 1"
   inkscape:vp_z="744.09448 : 526.18109 : 1"
   inkscape:vp_y="0 : 1000 : 0"
   inkscape:vp_x="0 : 526.18109 : 1"
   sodipodi:type="inkscape:persp3d" /><filter
   id="filter3820"
   inkscape:collect="always"
   style="color-interpolation-filters:sRGB"><feGaussianBlur
     id="feGaussianBlur3822"
     stdDeviation="2.8641304"
     inkscape:collect="always" /></filter><radialGradient
   id="radialGradient882"
   cx="40.4091"
   cy="43.466"
   r="42.6105"
   gradientTransform="matrix(1.0021,0,0,1.0021,2.506,-0.5573)"
   gradientUnits="userSpaceOnUse"><stop
     offset="0"
     style="stop-color:#4e6cb6;fill-opacity:1;fill:url(#linearGradient2009);stop-opacity:1"
     id="stop878" /><stop
     offset="1"
     style="stop-color:#c4d4fd;fill-opacity:1;fill:url(#linearGradient2009);stop-opacity:1"
     id="stop880" /></radialGradient></defs><sodipodi:namedview
   pagecolor="#000000"
   bordercolor="#666666"
   borderopacity="1"
   objecttolerance="10"
   gridtolerance="10"
   guidetolerance="10"
   inkscape:pageopacity="0"
   inkscape:pageshadow="2"
   inkscape:window-width="1920"
   inkscape:window-height="1131"
   id="namedview885"
   showgrid="false"
   inkscape:zoom="0.056454595"
   inkscape:cx="-3294.4081"
   inkscape:cy="2830.3846"
   inkscape:window-x="0"
   inkscape:window-y="0"
   inkscape:window-maximized="1"
   inkscape:current-layer="svg883"
   inkscape:pagecheckerboard="true" />
    
<rect
   style="opacity:1;fill:url(#linearGradient937);fill-opacity:1;fill-rule:nonzero;stroke:none;stroke-width:69.33000183;stroke-linecap:round;stroke-linejoin:bevel;stroke-miterlimit:1.41420996;stroke-dasharray:none;stroke-dashoffset:0;stroke-opacity:1;paint-order:markers fill stroke"
   id="rect921"
   width="5461"
   height="5461"
   x="0"
   y="1" /><path
   transform="matrix(56.290104,0,0,56.290104,-4979.2935,-32145.792)"
   inkscape:connector-curvature="0"
   id="rect3801-17"
   d="m 138.03125,587.03125 -38.75,38.75 38.75,38.75 38.75,-38.75 z"
   style="display:inline;fill:#000000;fill-opacity:0.47916667;stroke:none;filter:url(#filter3820)" /><g
   inkscape:label="blue box"
   id="layer1"
   style="display:inline"
   transform="matrix(5.8836721,0,0,5.8836721,1909.4184,-642.72761)"><path
     style="fill:#7395f4;fill-opacity:1;stroke:none"
     d="M 139.5526,153.22194 V 577.88959 H -285.1151 Z"
     id="rect3801"
     inkscape:connector-curvature="0"
     sodipodi:nodetypes="cccc" /><path
     style="fill:#536db3;fill-opacity:1;stroke:none"
     d="M 139.5526,153.22194 V 577.88959 H 564.22025 Z"
     id="rect3801-1"
     inkscape:connector-curvature="0"
     sodipodi:nodetypes="cccc" /><path
     style="fill:#2c3d6a;fill-opacity:1;stroke:none"
     d="M 139.5526,1002.5583 V 577.89068 h 424.66765 z"
     id="rect3801-1-7"
     inkscape:connector-curvature="0"
     sodipodi:nodetypes="cccc" /><path
     style="fill:#536db3;fill-opacity:1;stroke:none"
     d="M 139.5526,1002.5583 V 577.89068 h -424.66765 z"
     id="rect3801-1-7-4"
     inkscape:connector-curvature="0"
     sodipodi:nodetypes="cccc" /></g><path
   style="display:inline;fill:#ffffff;fill-opacity:1;stroke:#000000;stroke-width:54.91702271;stroke-linecap:butt;stroke-linejoin:miter;stroke-miterlimit:4;stroke-dasharray:none;stroke-opacity:1;filter:url(#filter886)"
   d="m -4914.3999,3882.7676 c -42.073,37.0928 -46.2437,104.9546 -48.9923,160.9759 -3.4976,71.2896 1.974,150.8644 41.9933,209.9678 35.9142,53.0478 99.9639,85.4563 160.9753,104.985 160.1182,51.2496 346.3303,79.5529 503.9238,20.9967 47.9623,-17.8215 86.8562,-60.4136 111.9836,-104.985 38.6488,-68.5571 52.1014,-152.3247 48.9924,-230.9645 -2.5949,-65.6463 -7.4797,-144.6698 -55.9908,-188.9718 -43.9216,-40.1092 -115.6324,-30.9461 -174.9748,-34.9949 -114.2639,-7.796 -229.1802,7.8023 -342.9473,20.9967 -82.2931,9.5446 -182.82,-12.7926 -244.9632,41.9941 z"
   id="path3772"
   inkscape:connector-curvature="0"
   sodipodi:nodetypes="sssssssssss"
   transform="matrix(1.0648657,0,0,1.0648657,5990.3711,-330.37885)" /><path
   style="display:inline;fill:#ffffff;fill-opacity:1;stroke:#000000;stroke-width:54.91702271;stroke-linecap:butt;stroke-linejoin:miter;stroke-miterlimit:4;stroke-dasharray:none;stroke-opacity:1;filter:url(#filter886)"
   d="m -3787.5701,3728.7915 c -71.3119,32.5524 -103.3232,119.6799 -139.9787,188.9711 -49.6827,93.9143 -111.7802,194.9252 -104.9851,300.9545 3.6668,57.2658 28.6379,123.0722 76.9894,153.9761 64.8989,41.4814 139.2896,-25.3749 209.9677,-55.9904 48.5349,-21.0227 116.133,-169.7555 139.9787,-216.9676 54.8751,-108.646 86.75,-116.6379 76.9887,-237.9643 -4.6184,-57.4351 -30.6781,-84.6962 -76.9881,-118.9818 -48.8952,-36.1987 -126.6297,-39.261 -181.9726,-13.9976 z"
   id="path3774"
   inkscape:connector-curvature="0"
   sodipodi:nodetypes="sssssssss"
   transform="matrix(1.0648657,0,0,1.0648657,5990.3711,-330.37885)" /><path
   style="display:inline;fill:#ffffff;fill-opacity:1;stroke:#000000;stroke-width:54.91702271;stroke-linecap:butt;stroke-linejoin:miter;stroke-miterlimit:4;stroke-dasharray:none;stroke-opacity:1;filter:url(#filter886)"
   d="m -4697.4331,3329.8512 c -62.5858,25.6971 -118.3373,78.6836 -146.9771,139.9792 -30.6794,65.6591 -43.273,150.6698 -13.9988,216.967 18.1025,40.9963 62.6958,69.153 104.9851,83.9868 123.282,43.245 261.2995,1.234 391.9403,0 123.6648,-1.1635 261.0968,49.8148 370.9436,-7.002 48.9068,-25.2944 79.8642,-80.9872 97.9854,-132.9794 21.5127,-61.7243 36.8099,-137.7989 7.0017,-195.9716 -26.853,-52.4025 -91.0661,-79.5198 -146.9771,-97.985 -88.7228,-29.3011 -186.5338,-12.5134 -279.958,-13.9977 -128.32,-2.0378 -266.2256,-41.7437 -384.9431,7.002 z"
   id="path3776"
   inkscape:connector-curvature="0"
   sodipodi:nodetypes="sssssssssss"
   transform="matrix(1.0648657,0,0,1.0648657,5990.3711,-330.37885)" /><path
   style="display:inline;fill:#ffffff;fill-opacity:1;stroke:#000000;stroke-width:54.91702271;stroke-linecap:butt;stroke-linejoin:miter;stroke-miterlimit:4;stroke-dasharray:none;stroke-opacity:1;filter:url(#filter886)"
   d="m -2030.836,3938.7593 c -34.9942,27.9958 -116.3144,46.1791 -139.9787,97.9851 -28.2614,61.8683 -8.235,141.5538 20.9967,202.9694 31.1961,65.5398 86.3524,127.602 153.9769,153.9768 52.2101,20.3634 124.8551,28.7933 167.975,-7.002 47.8992,-39.761 45.9709,-119.8477 41.9933,-181.9727 -4.2942,-67.034 -23.9319,-140.0744 -69.989,-188.971 -43.6906,-46.385 -130.4992,-112.5673 -174.9742,-76.9877 z"
   id="path3780"
   inkscape:connector-curvature="0"
   sodipodi:nodetypes="ssssssss"
   transform="matrix(1.0648657,0,0,1.0648657,5990.3711,-330.37885)" /><path
   style="display:inline;fill:#ffffff;fill-opacity:1;stroke:#000000;stroke-width:54.91702271;stroke-linecap:butt;stroke-linejoin:miter;stroke-miterlimit:4;stroke-dasharray:none;stroke-opacity:1;filter:url(#filter886)"
   d="m -2331.7906,3903.7643 c 41.3351,24.5887 85.2142,61.6116 132.9802,55.9917 43.0987,-5.077 84.6808,-38.6349 104.9845,-76.9884 30.5816,-57.7701 35.433,-137.1129 7.0017,-195.9702 -23.9512,-49.5785 -86.5416,-68.4034 -132.9803,-97.9851 -49.3095,-31.4101 -96.4926,-73.3253 -153.9768,-83.9876 -34.7124,-6.4378 -75.9799,-6.1275 -104.9839,13.9983 -32.5826,22.6129 -53.4943,65.4017 -55.9914,104.9835 -3.3001,52.3236 27.4926,102.9725 55.9914,146.9777 19.7272,30.4631 58.746,76.9891 76.9882,76.9891 0,0 44.3115,40.7164 69.9883,55.991 z"
   id="path3782"
   inkscape:connector-curvature="0"
   sodipodi:nodetypes="aaaaaaaaaca"
   transform="matrix(1.0648657,0,0,1.0648657,5990.3711,-330.37885)" /><path
   style="display:inline;fill:#ffffff;fill-opacity:1;stroke:#000000;stroke-width:54.91702271;stroke-linecap:butt;stroke-linejoin:miter;stroke-miterlimit:4;stroke-dasharray:none;stroke-opacity:1;filter:url(#filter886)"
   d="m -2807.7187,3518.823 c 63.7092,13.2557 126.1851,66.0899 188.9717,48.9926 47.7518,-13.0027 95.752,-56.3633 104.9838,-104.9843 10.9149,-57.4844 -31.5371,-116.8742 -69.989,-160.9759 -41.2823,-47.3482 -99.9427,-83.1167 -160.9753,-97.9852 -65.8905,-16.0515 -137.1065,-2.1577 -202.9706,13.9984 -39.5688,9.7096 -89.682,14.8937 -111.9822,48.9925 -25.5392,39.0495 -20.6718,98.148 0,139.9785 22.12,44.7611 73.0877,71.3262 118.9826,90.986 41.2495,17.6706 89.0445,11.856 132.979,20.9974 z"
   id="path3784"
   inkscape:connector-curvature="0"
   sodipodi:nodetypes="ssssssssss"
   transform="matrix(1.0648657,0,0,1.0648657,5990.3711,-330.37885)" /><path
   style="display:inline;fill:#ffffff;fill-opacity:1;stroke:#000000;stroke-width:54.91702271;stroke-linecap:butt;stroke-linejoin:miter;stroke-miterlimit:4;stroke-dasharray:none;stroke-opacity:1;filter:url(#filter886)"
   d="m -3283.6456,3616.8081 c 43.7781,-42.8198 114.2742,-63.3998 139.9774,-118.9825 16.6471,-35.9977 14.5438,-82.0837 0,-118.9819 -17.5531,-44.534 -51.752,-92.5759 -97.9847,-104.9842 -54.1719,-14.5391 -112.8799,20.1343 -160.9754,48.9926 -48.0954,28.8575 -86.1864,73.4811 -118.982,118.9825 -30.5025,42.3199 -63.3271,88.2381 -69.9896,139.9785 -5.7824,44.9268 -4.7105,101.6349 27.9957,132.9801 40.9786,39.2794 114.4511,46.8983 167.975,27.9952 52.9777,-18.7107 71.817,-86.6931 111.9836,-125.9803 z"
   id="path3786"
   inkscape:connector-curvature="0"
   sodipodi:nodetypes="ssssssssss"
   transform="matrix(1.0648657,0,0,1.0648657,5990.3711,-330.37885)" /><path
   style="display:inline;fill:#ffffff;fill-opacity:1;stroke:#000000;stroke-width:54.91702271;stroke-linecap:butt;stroke-linejoin:miter;stroke-miterlimit:4;stroke-dasharray:none;stroke-opacity:1;filter:url(#filter886)"
   d="m -1624.8969,3812.7783 c -53.3985,21.0101 -79.1879,18.7311 -104.9838,69.99 -18.1045,35.9751 -41.6857,88.1062 -27.9964,125.9802 25.5797,70.7544 31.5744,89.812 55.9915,160.976 10.7071,31.2077 7.8471,120.8539 27.9957,146.9776 29.3778,38.0807 85.9812,31.7818 132.9802,41.9942 77.5454,16.8498 159.5972,19.4919 237.9641,7.0019 61.216,-9.7583 131.1413,-19.1577 174.9735,-62.9901 43.8328,-43.8331 59.4447,-113.0869 62.9899,-174.9742 4.6609,-81.3539 -10.5996,-170.2893 -55.9914,-237.9637 -33.5382,-50.0001 -89.8758,-85.8949 -146.9778,-104.9842 -88.5317,-29.5965 -138.4107,-19.15 -230.965,-7.002 -40.9889,5.3802 -87.5105,19.8587 -125.9805,34.9943 z"
   id="path3788"
   inkscape:connector-curvature="0"
   sodipodi:nodetypes="sssssssssssss"
   transform="matrix(1.0648657,0,0,1.0648657,5990.3711,-330.37885)" /><path
   style="display:inline;fill:#ffffff;fill-opacity:1;stroke:#000000;stroke-width:54.91702271;stroke-linecap:butt;stroke-linejoin:miter;stroke-miterlimit:4;stroke-dasharray:none;stroke-opacity:1;filter:url(#filter886)"
   d="m -1645.8941,3294.8569 c -94.1056,22.1214 -212.8882,22.2427 -272.9583,97.9852 -37.9423,47.8403 -32.158,121.9412 -20.9973,181.9719 10.11,54.3755 30.1525,117.5623 76.9881,146.9777 59.3012,37.2464 140.128,12.1268 209.9684,7.0019 104.0541,-7.6373 220.4142,0.7757 307.9537,-55.9924 45.0637,-29.2221 85.2727,-79.5755 90.9863,-132.9794 7.2339,-67.6312 -27.8503,-141.9423 -76.9888,-188.9717 -50.1112,-47.961 -127.0479,-62.1701 -195.9701,-69.9893 -39.6796,-4.5058 -80.1074,4.8654 -118.982,13.9975 z"
   id="path3790"
   inkscape:connector-curvature="0"
   sodipodi:nodetypes="ssssssssss"
   transform="matrix(1.0648657,0,0,1.0648657,5990.3711,-330.37885)" /><path
   style="display:inline;fill:#ffffff;fill-opacity:1;stroke:#000000;stroke-width:54.91702271;stroke-linecap:butt;stroke-linejoin:miter;stroke-miterlimit:4;stroke-dasharray:none;stroke-opacity:1;filter:url(#filter886)"
   d="m -2387.7814,3399.8405 c 37.8548,41.9095 86.2578,73.2568 132.9795,104.9842 42.3723,28.7743 82.5859,67.8274 132.9796,76.9884 27.9243,5.077 61.7186,3.5962 83.9879,-13.9975 37.7364,-29.8179 53.4178,-84.9536 55.9908,-132.9801 2.6091,-48.6442 -5.6267,-107.5644 -41.9933,-139.9786 -49.5348,-44.1532 -129.6685,-32.2823 -195.9701,-34.9949 -49.1738,-2.0097 -100.7959,-3.011 -146.9784,13.9975 -26.7231,9.8408 -64.4235,21.0637 -69.9884,48.9926 -5.9445,29.8313 28.6025,54.415 48.9924,76.9884 z"
   id="path3792"
   inkscape:connector-curvature="0"
   sodipodi:nodetypes="ssssssssss"
   transform="matrix(1.0648657,0,0,1.0648657,5990.3711,-330.37885)" /><path
   style="display:inline;fill:#ffffff;fill-opacity:1;stroke:#000000;stroke-width:54.91702271;stroke-linecap:butt;stroke-linejoin:miter;stroke-miterlimit:4;stroke-dasharray:none;stroke-opacity:1;filter:url(#filter886)"
   d="m -3703.5829,3329.8512 c -41.7301,0.4935 -90.0424,20.4912 -111.9836,55.9917 -25.756,41.6754 -9.5071,98.9159 0,146.9776 8.3246,42.076 11.7527,97.7024 48.9937,118.9826 28.6456,16.3689 71.2192,5.2955 97.9847,-13.9983 29.6236,-21.3521 36.6916,-63.6022 48.9931,-97.9851 17.7287,-49.5588 58.0652,-106.6688 34.9941,-153.9768 -19.213,-39.3978 -75.1524,-56.5128 -118.982,-55.9917 z"
   id="path3794"
   inkscape:connector-curvature="0"
   sodipodi:nodetypes="ssssssss"
   transform="matrix(1.0648657,0,0,1.0648657,5990.3711,-330.37885)" /><path
   style="display:inline;fill:#ffffff;fill-opacity:1;stroke:#000000;stroke-width:54.91702271;stroke-linecap:butt;stroke-linejoin:miter;stroke-miterlimit:4;stroke-dasharray:none;stroke-opacity:1;filter:url(#filter886)"
   d="m -4543.4562,3161.8761 c -5.2246,-54.3628 13.2923,-119.9253 55.9921,-153.9761 58.8225,-46.9088 148.8739,-23.3208 223.9659,-27.9958 121.0802,-7.5386 242.6938,-3.9487 363.9445,0 107.4881,3.4975 228.2285,-31.7471 321.9513,20.9974 24.8179,13.9666 38.9422,43.3437 48.9924,69.9886 14.9125,39.5339 26.1626,85.5184 13.9982,125.9817 -10.4922,34.899 -36.9875,68.5296 -69.9891,83.9868 -59.1558,27.7074 -130.6619,1.389 -195.9701,0 -109.7252,-2.334 -219.2709,-10.0975 -328.951,-13.9976 -81.6362,-2.9051 -163.7542,1.8404 -244.9632,-7.002 -49.5804,-5.3942 -106.0789,0.4935 -146.9771,-27.9958 -22.3111,-15.57 -39.3906,-42.9066 -41.9939,-69.9886 z"
   id="path3796"
   inkscape:connector-curvature="0"
   sodipodi:nodetypes="sssssssssssss"
   transform="matrix(1.0648657,0,0,1.0648657,5990.3711,-330.37885)" /><path
   style="display:inline;fill:#ffffff;fill-opacity:1;stroke:#000000;stroke-width:54.91702271;stroke-linecap:butt;stroke-linejoin:miter;stroke-miterlimit:4;stroke-dasharray:none;stroke-opacity:1;filter:url(#filter886)"
   d="m -3143.6682,2895.9167 c -73.7434,11.8673 -146.5801,-4.5129 -209.9677,34.9957 -36.5075,22.7546 -87.0376,76.145 -90.9856,118.9818 -4.7034,51.0029 33.0472,106.6603 76.9874,132.9793 60.0766,35.9836 140.0134,10.1864 209.9684,7.002 75.1588,-3.4199 153.6403,-1.2622 223.9665,-27.9958 42.3407,-16.0975 89.572,-37.6216 111.9829,-76.9878 17.3523,-30.4785 20.9046,-72.7864 7.0023,-104.9842 -20.3693,-47.169 -70.0713,-54.2585 -118.9826,-69.9893 -66.7758,-21.4768 -140.7148,-25.1477 -209.969,-13.9996 z"
   id="path3798"
   inkscape:connector-curvature="0"
   sodipodi:nodetypes="ssssssssss"
   transform="matrix(1.0648657,0,0,1.0648657,5990.3711,-330.37885)" /><path
   style="display:inline;fill:#ffffff;fill-opacity:1;stroke:#000000;stroke-width:54.91702271;stroke-linecap:butt;stroke-linejoin:miter;stroke-miterlimit:4;stroke-dasharray:none;stroke-opacity:1;filter:url(#filter886)"
   d="m -2324.7915,2923.9125 c -72.6212,-2.3692 -144.6068,-27.5939 -216.9674,-20.9974 -50.7432,4.6257 -110.175,6.7552 -146.9778,41.9941 -26.6439,25.511 -36.0783,68.113 -34.9942,104.985 1.1067,37.6737 15.6692,78.0094 41.9933,104.9835 37.2281,38.1469 94.3089,54.8036 146.9784,62.9909 71.797,11.16 144.343,-18.6642 216.9661,-20.9967 72.3234,-2.3199 144.6178,5.8384 216.9675,7.0019 81.6445,1.3186 163.3096,0 244.9638,0 76.9881,0 156.0358,17.6882 230.9643,0 35.5404,-8.3897 78.7871,-17.9294 97.9854,-48.9926 18.3979,-29.7678 12.6187,-72.3429 0,-104.9835 -12.5061,-32.3494 -40.3854,-58.9201 -69.9897,-76.9891 -53.6185,-32.7259 -119.9002,-39.3435 -181.9719,-48.9925 -50.7689,-7.8919 -102.6109,-5.8385 -153.9775,-7.002 -55.9767,-1.2763 -111.9894,-0.8744 -167.9744,0 -74.6821,1.1635 -149.3134,9.4346 -223.9659,7.002 z"
   id="path3800"
   inkscape:connector-curvature="0"
   sodipodi:nodetypes="sssssssssssssssss"
   transform="matrix(1.0648657,0,0,1.0648657,5990.3711,-330.37885)" /><path
   style="display:inline;fill:#ffffff;fill-opacity:1;stroke:#000000;stroke-width:54.91702271;stroke-linecap:butt;stroke-linejoin:miter;stroke-miterlimit:4;stroke-dasharray:none;stroke-opacity:1;filter:url(#filter886)"
   d="m -3507.6134,2867.9208 c -79.5521,3.4975 -169.0302,23.9844 -244.9625,7e-4 -55.2593,-17.4548 -115.1383,-56.8484 -132.9796,-111.984 -14.8082,-45.7589 4.9009,-102.4621 34.9942,-139.9779 29.3791,-36.6231 80.7605,-50.3648 125.9811,-62.9908 83.4133,-23.2898 172.4288,-17.4943 258.9614,-20.9967 90.9116,-3.6808 183.0612,-14.0329 272.9582,0 60.5051,9.4452 123.246,23.2143 174.9742,55.991 40.4343,25.6209 81.8298,59.9242 97.9854,104.9842 12.6219,35.2059 15.8036,82.3397 -7.0023,111.9827 -26.9901,35.0852 -82.2873,34.9033 -125.9805,41.9941 -62.1773,10.0904 -132.9802,13.9983 -195.9708,13.9983 -90.9857,0 -168.0619,2.9968 -258.9601,7.0019 z"
   id="path3802"
   inkscape:connector-curvature="0"
   sodipodi:nodetypes="sssssssssssss"
   transform="matrix(1.0648657,0,0,1.0648657,5990.3711,-330.37885)" /><path
   style="display:inline;fill:#ffffff;fill-opacity:1;stroke:#000000;stroke-width:54.91702271;stroke-linecap:butt;stroke-linejoin:miter;stroke-miterlimit:4;stroke-dasharray:none;stroke-opacity:1;filter:url(#filter886)"
   d="m -4214.5058,2902.9151 c 49.0316,1.2763 101.6168,11.6572 146.9777,-7.002 29.0278,-11.9385 52.3086,-37.0575 69.989,-62.9901 22.4566,-32.9395 39.7272,-72.1815 41.9946,-111.9834 2.1857,-38.4141 -0.2831,-85.2906 -27.9957,-111.9834 -32.6258,-31.4249 -87.683,-28.2483 -132.9803,-27.9951 -43.0176,0.2117 -90.1073,4.2519 -125.9811,27.9951 -33.4725,22.1518 -50.1737,63.0804 -69.989,97.9852 -20.1158,35.4328 -42.6483,71.7366 -48.993,111.9833 -3.6527,23.1601 -9.5792,53.411 7.0023,69.99 33.1572,33.1574 93.1019,12.777 139.9774,13.9983 z"
   id="path3804"
   inkscape:connector-curvature="0"
   sodipodi:nodetypes="sssssssssss"
   transform="matrix(1.0648657,0,0,1.0648657,5990.3711,-330.37885)" /><path
   style="display:inline;fill:#ffffff;fill-opacity:1;stroke:#000000;stroke-width:54.91702271;stroke-linecap:butt;stroke-linejoin:miter;stroke-miterlimit:4;stroke-dasharray:none;stroke-opacity:1;filter:url(#filter886)"
   d="m -2408.7781,2538.9705 c -118.8366,9.1519 -247.2646,-25.6457 -356.9461,20.9967 -37.9828,16.1525 -76.2456,45.4352 -90.9869,83.9876 -17.5769,45.9682 -12.8355,105.7232 13.9982,146.9783 23.3515,35.9018 70.4104,52.698 111.9829,62.9894 83.8219,20.7506 172.6167,-5.8385 258.9607,-7.0019 109.6403,-1.4808 219.4678,6.0641 328.9504,0 63.2814,-3.5045 135.108,12.4032 188.9717,-20.9967 32.9989,-20.4622 54.3848,-60.1224 62.9905,-97.9851 12.5068,-55.0236 16.5963,-125.8942 -20.9979,-167.9751 -46.3692,-51.9034 -133.5438,-44.0588 -202.9686,-48.9926 -98.1803,-6.9808 -195.817,20.4404 -293.9549,27.9973 z"
   id="path3806"
   inkscape:connector-curvature="0"
   sodipodi:nodetypes="ssssssssssss"
   transform="matrix(1.0648657,0,0,1.0648657,5990.3711,-330.37885)" /><path
   style="display:inline;fill:#ffffff;fill-opacity:1;stroke:#000000;stroke-width:54.91702271;stroke-linecap:butt;stroke-linejoin:miter;stroke-miterlimit:4;stroke-dasharray:none;stroke-opacity:1;filter:url(#filter886)"
   d="m -3640.593,2224.0177 c -65.0733,10.9388 -132.9847,8.3214 -195.9701,27.9966 -59.7529,18.6648 -114.3449,51.6974 -167.9744,83.9868 -34.3868,20.7041 -74.1384,37.7034 -97.9848,69.99 -17.5318,23.7376 -39.6132,56.8597 -27.9963,83.9868 17.2551,40.2941 75.7694,48.6457 118.9813,55.9917 67.0564,11.3985 135.4246,-13.0019 202.9706,-20.9967 70.119,-8.3 139.626,-21.8541 209.9677,-27.9958 111.6554,-9.7499 226.6515,10.8188 335.9494,-13.9976 51.9791,-11.8018 108.7729,-25.8219 146.9778,-62.9901 23.9422,-23.2933 40.9046,-57.6008 41.9939,-90.9867 1.0649,-32.4776 -12.2893,-67.742 -34.9948,-90.9866 -29.9717,-30.6817 -77.0615,-39.919 -118.9821,-48.9926 -63.8862,-13.8276 -130.8029,-12.0768 -195.9701,-7.0019 -73.4422,5.7185 -144.3224,29.7826 -216.9681,41.9941 z"
   id="path3808"
   inkscape:connector-curvature="0"
   sodipodi:nodetypes="sssssssssssssss"
   transform="matrix(1.0648657,0,0,1.0648657,5990.3711,-330.37885)" /><path
   style="display:inline;fill:#ffffff;fill-opacity:1;stroke:#000000;stroke-width:54.91702271;stroke-linecap:butt;stroke-linejoin:miter;stroke-miterlimit:4;stroke-dasharray:none;stroke-opacity:1;filter:url(#filter886)"
   d="m -2793.7205,2175.0252 c -64.5889,12.0169 -142.9159,9.1413 -188.9717,55.9924 -30.5534,31.0808 -31.3795,82.5477 -34.9942,125.9809 -3.6945,44.4177 -12.7114,97.297 13.9975,132.9794 25.7013,34.3379 76.4039,43.8219 118.9821,48.9926 93.6751,11.3766 186.5904,-28.3223 279.9586,-41.9934 81.613,-11.9506 171.7918,3.0744 244.9625,-34.995 45.3892,-23.617 98.1302,-61.2774 104.9838,-111.9827 6.7057,-49.6399 -33.4956,-98.6676 -69.9896,-132.9801 -37.2777,-35.0479 -89.7207,-53.3918 -139.9793,-62.9908 -50.4658,-9.6377 -102.6978,3.7865 -153.9762,7.002 -58.3953,3.6596 -117.4495,3.2929 -174.9735,13.9961 z"
   id="path3810"
   inkscape:connector-curvature="0"
   sodipodi:nodetypes="ssssssssssss"
   transform="matrix(1.0648657,0,0,1.0648657,5990.3711,-330.37885)" /><path
   style="display:inline;fill:none;stroke:#000000;stroke-width:105.76976013;stroke-linecap:round;stroke-linejoin:miter;stroke-miterlimit:4;stroke-dasharray:none;stroke-opacity:1;filter:url(#filter886)"
   d="M -3108.6727,1979.055 -2107.8247,964.20891"
   id="path3816"
   inkscape:connector-curvature="0"
   sodipodi:nodetypes="cc"
   transform="matrix(1.0648657,0,0,1.0648657,5990.3711,-330.37885)" /><path
   style="display:inline;fill:none;stroke:#000000;stroke-width:105.76976013;stroke-linecap:round;stroke-linejoin:miter;stroke-miterlimit:4;stroke-dasharray:none;stroke-opacity:1;filter:url(#filter886)"
   d="M -3248.6514,2021.0491 -4333.4872,1006.2023"
   id="path3818"
   inkscape:connector-curvature="0"
   transform="matrix(1.0648657,0,0,1.0648657,5990.3711,-330.37885)" /><path
   style="display:inline;fill:#ffffff;fill-opacity:1;stroke:#000000;stroke-width:54.91702271;stroke-linecap:butt;stroke-linejoin:miter;stroke-miterlimit:4;stroke-dasharray:none;stroke-opacity:1;filter:url(#filter886)"
   d="m -3199.659,1944.0607 c -49.8115,7.4307 -99.1609,19.1852 -146.9778,34.9943 -33.7389,11.1552 -72.5858,17.1418 -97.9847,41.9941 -20.1493,19.7155 -46.6529,51.3223 -34.9962,76.9884 20.1467,44.3535 91.7816,34.9196 139.9794,41.9934 60.0154,8.8078 121.3292,-1.3185 181.9726,0 53.6964,1.1635 107.7852,14.4489 160.9753,7.002 36.5313,-5.1193 73.6063,-15.6011 104.9851,-34.9943 30.8718,-19.0802 71.9547,-41.0464 76.9881,-76.9884 3.3284,-23.7876 -16.512,-47.6514 -34.9955,-62.9908 -34.0618,-28.2687 -82.0865,-36.2699 -125.9804,-41.9941 -74.1726,-9.6716 -149.9832,2.9544 -223.9659,13.9975 z"
   id="path3812"
   inkscape:connector-curvature="0"
   sodipodi:nodetypes="ssssssssssss"
   transform="matrix(1.0648657,0,0,1.0648657,5990.3711,-330.37885)" /></svg>