<?xml version="1.0" encoding="UTF-8" standalone="no"?>
<svg
   xmlns:dc="http://purl.org/dc/elements/1.1/"
   xmlns:cc="http://creativecommons.org/ns#"
   xmlns:rdf="http://www.w3.org/1999/02/22-rdf-syntax-ns#"
   xmlns:svg="http://www.w3.org/2000/svg"
   xmlns="http://www.w3.org/2000/svg"
   xmlns:xlink="http://www.w3.org/1999/xlink"
   xmlns:sodipodi="http://sodipodi.sourceforge.net/DTD/sodipodi-0.dtd"
   xmlns:inkscape="http://www.inkscape.org/namespaces/inkscape"
   width="5461px"
   height="5461px"
   version="1.1"
   xml:space="preserve"
   style="fill-rule:evenodd;clip-rule:evenodd;stroke-linecap:round;stroke-linejoin:round;stroke-miterlimit:1.41421;"
   id="svg883"
   sodipodi:docname="somafm.svg"
   inkscape:version="0.92.3 (unknown)"><metadata
   id="metadata889"><rdf:RDF><cc:Work
       rdf:about=""><dc:format>image/svg+xml</dc:format><dc:type
         rdf:resource="http://purl.org/dc/dcmitype/StillImage" /><dc:title></dc:title></cc:Work></rdf:RDF></metadata><defs
   id="defs887"><linearGradient
   inkscape:collect="always"
   id="linearGradient2235"><stop
     style="stop-color:#000000;stop-opacity:1;"
     offset="0"
     id="stop2231" /><stop
     style="stop-color:#3d3d3d;stop-opacity:1"
     offset="1"
     id="stop2233" /></linearGradient><radialGradient
   gradientUnits="userSpaceOnUse"
   gradientTransform="matrix(0.015671,0,0,0.015671,0.33919035,0.29128379)"
   r="42.6105"
   cy="43.466"
   cx="40.4091"
   id="SVGID_1_"><stop
     id="stop3679"
     style="stop-color:#868688"
     offset="0" /><stop
     id="stop3681"
     style="stop-color:#DADADA"
     offset="1" /></radialGradient>
        
    
            
            
        <clipPath
   clipPathUnits="userSpaceOnUse"
   id="clipPath20"><path
     d="M 0,792 H 612 V 0 H 0 Z"
     id="path18"
     inkscape:connector-curvature="0" /></clipPath><linearGradient
   inkscape:collect="always"
   xlink:href="#linearGradient2235"
   id="linearGradient2237"
   x1="5461.0044"
   y1="5461.0908"
   x2="-2763.2871"
   y2="-2745.6602"
   gradientUnits="userSpaceOnUse" /></defs><sodipodi:namedview
   pagecolor="#ffffff"
   bordercolor="#666666"
   borderopacity="1"
   objecttolerance="10"
   gridtolerance="10"
   guidetolerance="10"
   inkscape:pageopacity="0"
   inkscape:pageshadow="2"
   inkscape:window-width="1920"
   inkscape:window-height="1131"
   id="namedview885"
   showgrid="false"
   inkscape:zoom="0.056454595"
   inkscape:cx="1250.1297"
   inkscape:cy="1402.2627"
   inkscape:window-x="0"
   inkscape:window-y="0"
   inkscape:window-maximized="1"
   inkscape:current-layer="svg883"
   inkscape:pagecheckerboard="true" />
    <rect
   style="opacity:1;fill:url(#linearGradient2237);fill-opacity:1;fill-rule:nonzero;stroke:none;stroke-width:69.33000183;stroke-linecap:round;stroke-linejoin:bevel;stroke-miterlimit:1.41420996;stroke-dasharray:none;stroke-dashoffset:0;stroke-opacity:1;paint-order:markers fill stroke"
   id="rect1502"
   width="5461.0088"
   height="5461.1821"
   x="-0.0043945312"
   y="-0.091064453" /><g
   id="g878"
   transform="matrix(4.4809913,0,0,4.4809913,8416.9071,-7915.088)"
   style="stroke-width:0.23106781">
                
                
                
                
                
                
                
                
                
                
                
                
                
                
                
                
                
                
                
                
                
                
            <g
   id="g22"
   transform="matrix(22.361444,0,0,-22.361444,-1428.8908,1964.1928)"
   style="stroke-width:0.01377775"><path
     d="M 0.21020155,-0.54104115 H 14.435332 c 2.214912,0 4.175527,-0.66389125 5.875049,-1.98973245 1.700494,-1.328753 2.55074,-2.6264468 2.55074,-3.8891989 0,-0.8939237 -0.314474,-1.625757 -0.939542,-2.1964705 -0.627979,-0.5736253 -1.321958,-0.8560702 -2.080969,-0.8560702 -0.98516,0 -1.881995,0.4474471 -2.691477,1.3452532 -0.810452,0.8948943 -1.657786,1.343312 -2.542004,1.343312 H 0.60426563 c -1.37631248,0 -2.06252753,-0.5610074 -2.06252753,-1.6859342 0,-0.7881282 0.4493884,-1.3850479 1.35010626,-1.7927008 L 16.374594,-17.68477 c 1.677198,-0.739598 3.050599,-1.930526 4.124084,-3.5689 1.072514,-1.643228 1.609257,-3.463105 1.609257,-5.461573 0,-2.667212 -0.944395,-4.92386 -2.829303,-6.773826 -1.887819,-1.852878 -4.027995,-2.77689 -6.420526,-2.77689 H 0.28105544 c -2.17220544,0 -4.18814414,0.654185 -6.04975714,1.970321 -1.8635543,1.316135 -2.7924196,2.595387 -2.7924196,3.832904 0,0.819187 0.3008863,1.544226 0.9026591,2.176087 0.6027433,0.632832 1.3850479,0.950219 2.3430312,0.950219 0.7871576,0 1.6296394,-0.448418 2.5274455,-1.345253 0.8987767,-0.896836 2.19549987,-1.345253 3.8950225,-1.345253 h 11.549184 c 0.910423,0 1.672345,0.349416 2.287706,1.053102 0.614391,0.700774 0.923042,1.507343 0.923042,2.417767 0,1.40349 -0.669715,2.414856 -2.006232,3.027305 l -16.6768699,7.508571 c -1.6034332,0.717274 -2.8360967,1.751935 -3.6989611,3.111748 -0.8618939,1.3569 -1.2938114,2.738066 -1.2938114,4.1473784 0,2.2217061 0.7687161,4.1464083 2.3100308,5.7760477 1.5393735,1.6286688 3.4427224,2.44397375 5.70907615,2.44397375"
     style="fill:#ed1f24;fill-opacity:1;fill-rule:nonzero;stroke:none;stroke-width:0.0133727"
     id="path24"
     inkscape:connector-curvature="0" /></g></g>
</svg>