<?xml version="1.0" encoding="UTF-8" standalone="no"?>
<!-- Created with Inkscape (http://www.inkscape.org/) -->

<svg
   width="86"
   height="86"
   id="svg2"
   version="1.1"
   inkscape:version="1.2.2 (b0a8486541, 2022-12-01)"
   sodipodi:docname="radionet.svg"
   inkscape:export-filename="C:\Users\Stephan\Desktop\double-shape.png"
   inkscape:export-xdpi="90"
   inkscape:export-ydpi="90"
   xml:space="preserve"
   xmlns:inkscape="http://www.inkscape.org/namespaces/inkscape"
   xmlns:sodipodi="http://sodipodi.sourceforge.net/DTD/sodipodi-0.dtd"
   xmlns:xlink="http://www.w3.org/1999/xlink"
   xmlns="http://www.w3.org/2000/svg"
   xmlns:svg="http://www.w3.org/2000/svg"
   xmlns:rdf="http://www.w3.org/1999/02/22-rdf-syntax-ns#"
   xmlns:cc="http://creativecommons.org/ns#"
   xmlns:dc="http://purl.org/dc/elements/1.1/"><defs
     id="defs4"><linearGradient
       id="linearGradient3789-6"><stop
         style="stop-color:#000000;stop-opacity:1;"
         offset="0"
         id="stop3791-0" /><stop
         style="stop-color:#3d3d3d;stop-opacity:1;"
         offset="1"
         id="stop3793-4" /></linearGradient><filter
       x="-0.063521518"
       y="-0.45755343"
       width="1.127043"
       height="1.9151069"
       color-interpolation-filters="sRGB"
       id="filter3973"><feGaussianBlur
         stdDeviation="1.0784638"
         id="feGaussianBlur3975" /></filter><linearGradient
       id="linearGradient7462-8"><stop
         id="stop7464-6"
         style="stop-color:#ffffff;stop-opacity:1"
         offset="0" /><stop
         id="stop7466-89"
         style="stop-color:#e5e5e5;stop-opacity:1"
         offset="1" /></linearGradient><linearGradient
       inkscape:collect="always"
       xlink:href="#linearGradient3789-6"
       id="linearGradient864"
       x1="26.864611"
       y1="115.40576"
       x2="-91.923882"
       y2="-3.3380961"
       gradientUnits="userSpaceOnUse"
       gradientTransform="translate(59.396969,-25.188816)" /></defs><sodipodi:namedview
     id="base"
     pagecolor="#000000"
     bordercolor="#666666"
     borderopacity="1.0"
     inkscape:pageopacity="0"
     inkscape:pageshadow="2"
     inkscape:zoom="2.8284271"
     inkscape:cx="-15.202796"
     inkscape:cy="60.45763"
     inkscape:document-units="px"
     inkscape:current-layer="layer2"
     showgrid="true"
     inkscape:window-width="1920"
     inkscape:window-height="1009"
     inkscape:window-x="0"
     inkscape:window-y="0"
     inkscape:window-maximized="1"
     inkscape:snap-bbox="true"
     inkscape:snap-global="true"
     inkscape:snap-grids="false"
     inkscape:snap-others="false"
     inkscape:pagecheckerboard="true"
     inkscape:showpageshadow="0"
     inkscape:deskcolor="#000000"><inkscape:grid
       type="xygrid"
       id="grid2985"
       empspacing="5"
       visible="false"
       enabled="true"
       snapvisiblegridlinesonly="true" /></sodipodi:namedview><metadata
     id="metadata7"><rdf:RDF><cc:Work
         rdf:about=""><dc:format>image/svg+xml</dc:format><dc:type
           rdf:resource="http://purl.org/dc/dcmitype/StillImage" /></cc:Work></rdf:RDF></metadata><g
     inkscape:groupmode="layer"
     id="layer2"
     inkscape:label="Ebene"
     style="display:inline"
     transform="translate(0,-4)"><rect
       style="opacity:1;fill:url(#linearGradient864);fill-opacity:1;fill-rule:nonzero;stroke:none;stroke-width:69.33000183;stroke-linecap:round;stroke-linejoin:bevel;stroke-miterlimit:1.41420996;stroke-dasharray:none;stroke-dashoffset:0;stroke-opacity:1;paint-order:markers fill stroke"
       id="rect856"
       width="86"
       height="86"
       x="0"
       y="4" /><g
       transform="matrix(0.37486153,0,0,0.37291148,9.5866125,13.397731)"
       id="g371"
       style="fill:none;fill-rule:evenodd"><path
         d="m 48.727,63.736 c -3.78,1.715 -7.97,2.679 -12.383,2.679 -16.579,0 -30.069,-13.489 -30.069,-30.07 0,-16.58 13.49,-30.069 30.069,-30.069 16.58,0 30.069,13.489 30.069,30.069 0,4.413 -0.963,8.603 -2.678,12.381 l 4.694,4.696 C 71.145,48.33 72.689,42.519 72.689,36.345 72.689,16.272 56.417,0 36.344,0 16.272,0 0,16.272 0,36.345 c 0,20.073 16.272,36.346 36.344,36.346 6.174,0 11.986,-1.545 17.078,-4.261 l -4.695,-4.694"
         fill="#ffffff"
         id="path367" /><path
         d="M 137.23,66.032 H 95.192 c -7.215,0 -13.725,2.179 -18.774,5.39 L 48.533,43.532 c 1.245,-2.106 1.959,-4.562 1.959,-7.186 0,-7.815 -6.333,-14.15 -14.147,-14.15 -7.815,0 -14.151,6.335 -14.151,14.15 0,7.814 6.336,14.147 14.151,14.147 2.622,0 5.081,-0.714 7.183,-1.958 l 43.034,43.033 c 1.898,-2.729 5.061,-4.516 8.637,-4.516 h 42.04 c 5.808,0 10.511,4.702 10.511,10.509 v 42.041 c 0,5.808 -4.707,10.513 -10.511,10.513 h -42.04 c -5.804,0 -10.511,-4.707 -10.511,-10.513 V 99.7 L 66.384,81.396 c -1.82,2.826 -4.747,8.474 -4.747,16.165 v 42.041 c 0,17.958 15.025,31.531 33.555,31.531 h 42.038 c 18.53,0 33.552,-13.573 33.552,-31.531 V 97.561 c 0,-17.955 -15.022,-31.529 -33.552,-31.529"
         fill="#64e646"
         id="path369" /></g></g></svg>
