<?xml version="1.0" encoding="UTF-8" standalone="no"?>
<svg
   xmlns:dc="http://purl.org/dc/elements/1.1/"
   xmlns:cc="http://creativecommons.org/ns#"
   xmlns:rdf="http://www.w3.org/1999/02/22-rdf-syntax-ns#"
   xmlns:svg="http://www.w3.org/2000/svg"
   xmlns="http://www.w3.org/2000/svg"
   xmlns:sodipodi="http://sodipodi.sourceforge.net/DTD/sodipodi-0.dtd"
   xmlns:inkscape="http://www.inkscape.org/namespaces/inkscape"
   width="86px"
   height="86px"
   enable-background="new 0 0 86 86"
   version="1.1"
   viewBox="0 0 86 86"
   xml:space="preserve"
   id="svg38"
   sodipodi:docname="jupii-clean.svg"
   inkscape:version="0.92.3 (unknown)"><sodipodi:namedview
     pagecolor="#000000"
     bordercolor="#666666"
     borderopacity="1"
     objecttolerance="10"
     gridtolerance="10"
     guidetolerance="10"
     inkscape:pageopacity="0"
     inkscape:pageshadow="2"
     inkscape:window-width="1139"
     inkscape:window-height="798"
     id="namedview40"
     showgrid="false"
     inkscape:zoom="2.744186"
     inkscape:cx="43"
     inkscape:cy="43"
     inkscape:window-x="0"
     inkscape:window-y="0"
     inkscape:window-maximized="0"
     inkscape:current-layer="svg38" /><metadata
     id="metadata2"><rdf:RDF><cc:Work
         rdf:about=""><dc:format>image/svg+xml</dc:format><dc:type
           rdf:resource="http://purl.org/dc/dcmitype/StillImage" /><dc:title></dc:title></cc:Work></rdf:RDF></metadata><defs
     id="defs30"><linearGradient
       id="linearGradient1056"
       x1="-.063407"
       x2="85.818"
       y1="-.28124"
       y2="86.182"
       gradientTransform="translate(-103.66 -61.623)"
       gradientUnits="userSpaceOnUse"><stop
         stop-color="#4e00ff"
         offset="0"
         id="stop4" /><stop
         stop-color="#8d00d6"
         offset=".64299"
         id="stop6" /></linearGradient><mask
       id="mask1151"
       maskUnits="userSpaceOnUse"><g
         transform="matrix(1.2364 0 0 1.2364 -152.87 -52.757)"
         id="g27"><g
           transform="translate(-7.1975 -12.019)"
           stroke-width=".80883"
           id="g13"><rect
             transform="scale(-1)"
             x="-52.288"
             y="-40.54"
             width="69.966"
             height="5.6483"
             rx="1.4737"
             ry="1.4737"
             fill="#fff"
             fill-opacity=".59216"
             style="paint-order:stroke fill markers"
             id="rect9" /><circle
             transform="scale(-1)"
             cx="-58.674"
             cy="-37.716"
             r="9.2924"
             fill="#fff"
             style="paint-order:normal"
             id="circle11" /></g><g
           transform="rotate(180 43.045 40.348)"
           stroke-width=".80883"
           id="g19"><rect
             transform="scale(-1)"
             x="-52.288"
             y="-40.54"
             width="69.966"
             height="5.6483"
             rx="1.4737"
             ry="1.4737"
             fill="#fff"
             fill-opacity=".59216"
             style="paint-order:stroke fill markers"
             id="rect15" /><circle
             transform="scale(-1)"
             cx="-58.674"
             cy="-37.716"
             r="9.2924"
             fill="#fff"
             style="paint-order:normal"
             id="circle17" /></g><g
           transform="translate(-7.1975 22.244)"
           stroke-width=".80883"
           id="g25"><rect
             transform="scale(-1)"
             x="-52.288"
             y="-40.54"
             width="69.966"
             height="5.6483"
             rx="1.4737"
             ry="1.4737"
             fill="#fff"
             fill-opacity=".59216"
             style="paint-order:stroke fill markers"
             id="rect21" /><circle
             transform="scale(-1)"
             cx="-58.674"
             cy="-37.716"
             r="9.2924"
             fill="#fff"
             style="paint-order:normal"
             id="circle23" /></g></g></mask></defs><g
     id="g36"><path
       d="m0.301 1.723c0-0.786 0.637-1.423 1.423-1.423h41.276c23.583 0 42.7 19.117 42.7 42.7 0 23.582-19.117 42.7-42.7 42.7s-42.7-19.118-42.7-42.7c0-0.636 1e-3 -41.277 1e-3 -41.277z"
       fill="url(#linearGradient1056)"
       id="path32" /><path
       transform="translate(143.1 42.806)"
       d="m-142.8-41.083c0-0.786 0.637-1.423 1.423-1.423h41.276c23.583 0 42.7 19.117 42.7 42.7 0 23.582-19.117 42.7-42.7 42.7-23.583 0-42.7-19.118-42.7-42.7 0-0.636 1e-3 -41.277 1e-3 -41.277z"
       fill="#fffffd"
       mask="url(#mask1151)"
       id="path34" /></g></svg>