<?xml version="1.0" encoding="UTF-8"?>
<svg width="48" height="48" version="1.1" viewBox="0 0 12.7 12.7" xmlns="http://www.w3.org/2000/svg" xmlns:cc="http://creativecommons.org/ns#" xmlns:dc="http://purl.org/dc/elements/1.1/" xmlns:rdf="http://www.w3.org/1999/02/22-rdf-syntax-ns#" xmlns:xlink="http://www.w3.org/1999/xlink">
 <defs>
  <linearGradient id="linearGradient1355" x1="24.196" x2="35.21" y1="28.974" y2="39.435" gradientTransform="scale(.26458)" gradientUnits="userSpaceOnUse" xlink:href="#jupii-shadow"/>
  <linearGradient id="jupii-shadow">
   <stop stop-opacity=".2" offset="0"/>
   <stop stop-color="#0a0000" stop-opacity="0" offset="1"/>
  </linearGradient>
  <linearGradient id="linearGradient1353" x1="15.27" x2="33.097" y1="23.195" y2="40.681" gradientTransform="scale(.26458)" gradientUnits="userSpaceOnUse" xlink:href="#jupii-shadow"/>
  <linearGradient id="linearGradient1351" x1="28.481" x2="43.735" y1="13.966" y2="28.781" gradientTransform="scale(.26458)" gradientUnits="userSpaceOnUse" xlink:href="#jupii-shadow"/>
  <linearGradient id="linearGradient988" x1="10.143" x2="2.5754" y1="9.6635" y2="2.6544" gradientUnits="userSpaceOnUse">
   <stop stop-color="#830dff" offset="0"/>
   <stop stop-color="#bf65ff" offset="1"/>
  </linearGradient>
 </defs>
 <metadata>
  <rdf:RDF>
   <cc:Work rdf:about="">
    <dc:format>image/svg+xml</dc:format>
    <dc:type rdf:resource="http://purl.org/dc/dcmitype/StillImage"/>
   </cc:Work>
  </rdf:RDF>
 </metadata>
 <g stroke-linecap="round" stroke-linejoin="round" stroke-opacity=".2">
  <path d="m5.8571 11.611c-1.7208-0.16329-3.2562-1.1641-4.1149-2.6822-0.67283-1.1895-0.84903-2.6485-0.48117-3.9842 0.19208-0.69744 0.53204-1.358 0.99273-1.9289 0.16402-0.20325 0.58396-0.62032 0.79092-0.78551 1.8079-1.4431 4.3334-1.5524 6.2418-0.27014 0.32009 0.21507 0.53151 0.38873 0.79937 0.65658 0.84899 0.84899 1.3669 1.9209 1.5181 3.1417 0.03169 0.25599 0.03129 0.93903-6.96e-4 1.1968-0.24718 1.9916-1.5311 3.6311-3.4024 4.3445-0.69912 0.26655-1.5811 0.38371-2.3437 0.31134z" fill="#6600d0" stroke-width=".0042333" style="paint-order:markers fill stroke"/>
  <path d="m5.8428 11.357c-1.7208-0.1595-3.2562-1.1371-4.1149-2.62-0.67283-1.1619-0.84903-2.5871-0.48117-3.8918 0.19208-0.68126 0.53204-1.3265 0.99273-1.8841 0.16402-0.19854 0.58396-0.60593 0.79092-0.76729 1.8079-1.4096 4.3334-1.5164 6.2418-0.26388 0.32009 0.21008 0.53151 0.37971 0.79937 0.64135 0.84899 0.82929 1.3669 1.8763 1.5181 3.0688 0.03169 0.25005 0.03129 0.91725-6.88e-4 1.169-0.24718 1.9454-1.5311 3.5468-3.4024 4.2438-0.69912 0.26037-1.5811 0.37481-2.3437 0.30412z" fill="url(#linearGradient988)" stroke-width=".0042333" style="paint-order:markers fill stroke"/>
 </g>
 <g>
  <g>
   <path d="m8.5127 2.7202-1.9306 1.9301 4.0385 4.6039a5.2917 5.1531 0 0 0 1.0211-3.0427 5.2917 5.1531 0 0 0-0.065113-0.80357z" fill="url(#linearGradient1351)"/>
   <path d="m4.9651 5.2353-1.9306 1.9306 3.6726 4.1868a5.2917 5.1531 0 0 0 3.4499-1.5627z" fill="url(#linearGradient1353)"/>
   <path d="m8.4486 7.6807-1.9301 1.9301 1.3482 1.5374a5.2917 5.1531 0 0 0 2.5993-1.6981z" fill="url(#linearGradient1355)"/>
  </g>
  <g fill="#fff">
   <g fill-opacity=".59216">
    <path d="m1.9823 3.3021a5.2917 5.1531 0 0 0-0.47284 0.82786h5.1315v-0.82786z" stroke-width=".26458" style="paint-order:stroke fill markers"/>
    <path d="m4.9863 5.8358v0.82786h6.6347a5.2917 5.1531 0 0 0 0.02067-0.45217 5.2917 5.1531 0 0 0-0.01395-0.37569z" stroke-width=".26459" style="paint-order:stroke fill markers"/>
    <path d="m1.5245 8.3251a5.2917 5.1531 0 0 0 0.48111 0.82786h4.6354v-0.82786z" stroke-width=".26459" style="paint-order:stroke fill markers"/>
   </g>
   <g stroke-width=".26459">
    <circle transform="scale(-1)" cx="-7.5772" cy="-3.716" r="1.3623" style="paint-order:normal"/>
    <circle cx="4.05" cy="6.2497" r="1.3623" style="paint-order:normal"/>
    <circle transform="scale(-1)" cx="-7.5772" cy="-8.7389" r="1.3623" style="paint-order:normal"/>
   </g>
  </g>
 </g>
</svg>
